<svg id="Layer_1" data-name="Layer 1" xmlns="http://www.w3.org/2000/svg" viewBox="0 0 30.6 22.76"><defs><style>.cls-1{fill:#2980b9;}.cls-2{fill:#2c3e50;}</style></defs><title>logo-mini</title><path class="cls-1" d="M1431,49.57a2.48,2.48,0,0,1-2.8,2.82h-4.77v-2.8h4.77V47.73h-8.44a2.79,2.79,0,0,1-2.58-1.65,2.57,2.57,0,0,1-.22-1.07v-8.5a2.79,2.79,0,0,1,.77-2,2.72,2.72,0,0,1,2-.78H1431V49.57Zm-2.8-4.64V36.49h-8.44v8.44h8.44Z" transform="translate(-1416.92 -29.63)"/><path class="cls-2" d="M1447.52,44.94a2.66,2.66,0,0,1-2.8,2.8h-11.27V29.63h2.8v4.05h8.47a2.71,2.71,0,0,1,1.05.21,2.78,2.78,0,0,1,.89.59,3.08,3.08,0,0,1,.62.88,2.46,2.46,0,0,1,.24,1.06v8.5Zm-2.8,0V36.49h-8.47v8.44h8.47Z" transform="translate(-1416.92 -29.63)"/></svg>