<?xml version="1.0" encoding="utf-8"?>
<!-- Generator: Adobe Illustrator 19.2.1, SVG Export Plug-In . SVG Version: 6.00 Build 0)  -->
<svg version="1.1" id="Layer_1" xmlns="http://www.w3.org/2000/svg" xmlns:xlink="http://www.w3.org/1999/xlink" x="0px" y="0px"
	 viewBox="0 0 364 164" style="enable-background:new 0 0 364 164;" xml:space="preserve">
<style type="text/css">
	.st0{fill:#E74C3C;}
	.st1{fill:#FFFFFF;}
	.st2{fill:#333333;}
</style>
<g>
	<g>
		<circle class="st0" cx="280.2" cy="82" r="79.8"/>
		<path class="st1" d="M286.6,55l-23.6,55.3h-11L230.2,55h12.7l15,40.7C257.9,95.7,268.6,55,286.6,55z"/>
		<path class="st1" d="M327.4,99.2c0,3.6-1,6.3-2.9,8.2c-1.9,1.9-4.7,2.8-8.3,2.8h-39.5v-11h39.5V88.1H287c-3.3,0-5.9-0.9-8-2.8
			s-3-4.6-3-8.2V66.1c0-3.5,1-6.2,3-8.2c2-1.9,4.7-2.9,8-2.9h37.8v11H287v11.1h29.3c3.4,0,6.1,1,8.1,3s3,4.7,3,8V99.2z"/>
	</g>
	<g>
		<path class="st2" d="M59.2,117c0,7.4-3.7,11.1-11,11.1H29.5v-11h18.7v-7.3H15c-1.5,0-2.9-0.3-4.3-0.8c-1.3-0.6-2.5-1.3-3.5-2.3
			c-1-1-1.8-2.1-2.4-3.4C4.3,102,4,100.6,4,99.1V65.7c0-3.3,1-5.9,3-8c2-2.1,4.7-3.1,8-3.1h44.2V117z M48.2,98.8V65.6H15v33.2H48.2z
			"/>
		<path class="st2" d="M124.1,99.1c0,1.5-0.3,2.9-0.9,4.2c-0.6,1.3-1.4,2.4-2.4,3.4c-1,1-2.2,1.7-3.5,2.3c-1.3,0.6-2.7,0.8-4.2,0.8
			H80v18.3H69V54.6h44.1c3.3,0,6,1,8,3.1c2,2.1,3,4.7,3,8V99.1z M113.1,98.8V65.6H80v33.2H113.1z"/>
		<path class="st2" d="M188.3,98.8c0,3.3-1,5.9-3,8c-2,2-4.7,3-8,3h-33.1c-1.6,0-3.1-0.3-4.4-0.8c-1.4-0.6-2.5-1.3-3.5-2.3
			c-1-1-1.7-2.1-2.3-3.5c-0.5-1.3-0.8-2.8-0.8-4.4V54.5h11v44.3h33.1V54.5h11V98.8z"/>
	</g>
</g>
</svg>
