<?xml version="1.0" encoding="utf-8"?>
<!-- Generator: Adobe Illustrator 19.2.1, SVG Export Plug-In . SVG Version: 6.00 Build 0)  -->
<svg version="1.1" id="Layer_1" xmlns="http://www.w3.org/2000/svg" xmlns:xlink="http://www.w3.org/1999/xlink" x="0px" y="0px"
	 viewBox="0 0 164 164" style="enable-background:new 0 0 164 164;" xml:space="preserve">
<style type="text/css">
	.st0{fill:#E74C3C;}
	.st1{fill:#FFFFFF;}
</style>
<g>
	<circle class="st0" cx="82.2" cy="82" r="79.8"/>
	<path class="st1" d="M88.6,55l-23.6,55.3h-11L32.2,55h12.7l15,40.7C59.9,95.7,70.6,55,88.6,55z"/>
	<path class="st1" d="M129.4,99.2c0,3.6-1,6.3-2.9,8.2c-1.9,1.9-4.7,2.8-8.3,2.8H78.8v-11h39.5V88.1H89c-3.3,0-5.9-0.9-8-2.8
		c-2-1.8-3-4.6-3-8.2V66.1c0-3.5,1-6.2,3-8.2c2-1.9,4.7-2.9,8-2.9h37.8v11H89v11.1h29.3c3.4,0,6.1,1,8.1,3s3,4.7,3,8V99.2z"/>
</g>
</svg>
