<svg id="Layer_1" data-name="Layer 1" xmlns="http://www.w3.org/2000/svg" viewBox="0 0 149.72 22.76"><defs><style>.cls-1{fill:#2980b9;}.cls-2{fill:#2c3e50;}.cls-3{fill:#e67e22;}</style></defs><title>logo-beta</title><path class="cls-1" d="M1431,49.57a2.48,2.48,0,0,1-2.8,2.82h-4.77v-2.8h4.77V47.73h-8.44a2.79,2.79,0,0,1-2.58-1.65,2.57,2.57,0,0,1-.22-1.07v-8.5a2.79,2.79,0,0,1,.77-2,2.72,2.72,0,0,1,2-.78H1431V49.57Zm-2.8-4.64V36.49h-8.44v8.44h8.44Z" transform="translate(-1416.92 -29.63)"/><path class="cls-1" d="M1447.48,45a2.48,2.48,0,0,1-.23,1.07,3,3,0,0,1-.61.86,2.79,2.79,0,0,1-.89.58,2.75,2.75,0,0,1-1.07.21h-8.42v4.66h-2.8V33.69h11.22a2.72,2.72,0,0,1,2,.78,2.79,2.79,0,0,1,.77,2V45Zm-2.8-.07V36.49h-8.42v8.44h8.42Z" transform="translate(-1416.92 -29.63)"/><path class="cls-1" d="M1463.81,44.93a2.65,2.65,0,0,1-2.8,2.8h-8.42a3,3,0,0,1-1.13-.21,2.69,2.69,0,0,1-.89-0.58,2.53,2.53,0,0,1-.58-0.88,3,3,0,0,1-.2-1.12V33.67h2.8V44.93H1461V33.67h2.8V44.93Z" transform="translate(-1416.92 -29.63)"/><path class="cls-2" d="M1480.25,44.94a2.66,2.66,0,0,1-2.8,2.8h-11.27V29.63h2.8v4.05h8.47a2.71,2.71,0,0,1,1,.21,2.78,2.78,0,0,1,.89.59,3.08,3.08,0,0,1,.62.88,2.46,2.46,0,0,1,.24,1.06v8.5Zm-2.8,0V36.49H1469v8.44h8.47Z" transform="translate(-1416.92 -29.63)"/><path class="cls-2" d="M1485.09,42.09v2.85h10.44v2.8h-10.44a3,3,0,0,1-1.13-.21,2.61,2.61,0,0,1-.89-0.59,2.68,2.68,0,0,1-.58-0.88,3,3,0,0,1-.2-1.11V36.47a2.86,2.86,0,0,1,.72-2,2.69,2.69,0,0,1,2.08-.78h8.33a3,3,0,0,1,1.13.21,2.72,2.72,0,0,1,.89.58,2.54,2.54,0,0,1,.58.88,3,3,0,0,1,.2,1.12v2.82a2.63,2.63,0,0,1-2.8,2.8h-8.33Zm8.33-2.8V36.47h-8.33v2.82h8.33Z" transform="translate(-1416.92 -29.63)"/><path class="cls-2" d="M1511.59,47.73h-2.8V36.49h-7.71V47.73h-2.8v-14h10.51a2.48,2.48,0,0,1,2.8,2.82V47.73Z" transform="translate(-1416.92 -29.63)"/><path class="cls-2" d="M1527.33,47.73h-10.77a2.47,2.47,0,0,1-2.8-2.8V36.51a3,3,0,0,1,.71-2,2.62,2.62,0,0,1,2.09-.82h10.77v2.8h-10.77v8.44h10.77v2.8Z" transform="translate(-1416.92 -29.63)"/><path class="cls-2" d="M1543.15,47.73h-2.8V36.49h-8.42V47.73h-2.8V29.63h2.8v4.05h8.42a2.48,2.48,0,0,1,2.8,2.82V47.73Z" transform="translate(-1416.92 -29.63)"/><path class="cls-3" d="M1549,29.87l1.78-.24-0.57,2.7,0.33-.18,0.26-.1,0.21,0h0.18a1.53,1.53,0,0,1,.58.11,1.07,1.07,0,0,1,.45.35,1.76,1.76,0,0,1,.29.64,3.86,3.86,0,0,1,.1,1,5.21,5.21,0,0,1-.07.79,5.3,5.3,0,0,1-.22.89,4.68,4.68,0,0,1-.4.88,3.31,3.31,0,0,1-.62.76,2.85,2.85,0,0,1-.86.54,3,3,0,0,1-1.13.2,1.75,1.75,0,0,1-1.25-.4,1.49,1.49,0,0,1-.42-1.13,3.39,3.39,0,0,1,0-.34,2.08,2.08,0,0,1,.06-0.34Zm0.39,6.24a1.24,1.24,0,0,0,0,.28,0.53,0.53,0,0,0,.63.56,0.63,0.63,0,0,0,.38-0.13,1.49,1.49,0,0,0,.34-0.35,2.9,2.9,0,0,0,.28-0.52,4.76,4.76,0,0,0,.22-0.62,5.36,5.36,0,0,0,.14-0.67,4.53,4.53,0,0,0,0-.66,2.35,2.35,0,0,0,0-.42,1.46,1.46,0,0,0-.12-0.37,0.74,0.74,0,0,0-.2-0.26,0.44,0.44,0,0,0-.28-0.1h-0.16l-0.21,0-0.2.07a0.39,0.39,0,0,0-.14.11Z" transform="translate(-1416.92 -29.63)"/><path class="cls-3" d="M1558.09,35.89a6.86,6.86,0,0,1-.58.82,4.34,4.34,0,0,1-.73.71,3.62,3.62,0,0,1-.9.5,3,3,0,0,1-1.09.19A2.58,2.58,0,0,1,1554,38a1.53,1.53,0,0,1-.59-0.34,1.48,1.48,0,0,1-.38-0.59,2.54,2.54,0,0,1-.13-0.87,5.25,5.25,0,0,1,.07-0.8,6.11,6.11,0,0,1,.22-0.93,5.25,5.25,0,0,1,.4-0.93,3.67,3.67,0,0,1,.61-0.82,2.82,2.82,0,0,1,.84-0.58,2.61,2.61,0,0,1,1.1-.22,1.89,1.89,0,0,1,.66.1,1.06,1.06,0,0,1,.4.25,0.84,0.84,0,0,1,.21.37,1.66,1.66,0,0,1,.06.43,2.1,2.1,0,0,1-.23,1,2.58,2.58,0,0,1-.61.78,3.17,3.17,0,0,1-.88.54,3.26,3.26,0,0,1-1,.24l0,0.25q0,0.12,0,.23a1.88,1.88,0,0,0,.06.5,0.71,0.71,0,0,0,.16.31,0.58,0.58,0,0,0,.27.16,1.45,1.45,0,0,0,.38,0,2.1,2.1,0,0,0,.65-0.09,2.27,2.27,0,0,0,.54-0.26,3,3,0,0,0,.48-0.39l0.45-.47h0.41Zm-3.28-.85a1.61,1.61,0,0,0,.66-0.19,2,2,0,0,0,.56-0.44,2.19,2.19,0,0,0,.38-0.62,1.88,1.88,0,0,0,.14-0.72,0.84,0.84,0,0,0-.06-0.36,0.24,0.24,0,0,0-.23-0.13,0.64,0.64,0,0,0-.45.22,2.52,2.52,0,0,0-.41.57,4.9,4.9,0,0,0-.34.79A7,7,0,0,0,1554.82,35Z" transform="translate(-1416.92 -29.63)"/><path class="cls-3" d="M1561.39,35.89a4.88,4.88,0,0,1-.38.84,3.48,3.48,0,0,1-.43.6,2.36,2.36,0,0,1-.92.63,2.11,2.11,0,0,1-.42.11l-0.36,0a1.51,1.51,0,0,1-.5-0.08,1,1,0,0,1-.41-0.26,1.24,1.24,0,0,1-.27-0.45,1.88,1.88,0,0,1-.1-0.65,3.06,3.06,0,0,1,0-.36q0-.2.07-0.42l0.72-3.37H1558l0.1-.48h0.39l0.36-1.66,1.78-.24-0.41,1.9h0.72l-0.09.48h-0.72l-0.77,3.6a1,1,0,0,0,0,.2q0,0.1,0,.19a0.43,0.43,0,0,0,.12.35,0.58,0.58,0,0,0,.37.1,0.79,0.79,0,0,0,.34-0.08,1.1,1.1,0,0,0,.31-0.22,1.56,1.56,0,0,0,.25-0.34,2.12,2.12,0,0,0,.18-0.42h0.5Z" transform="translate(-1416.92 -29.63)"/><path class="cls-3" d="M1565.79,36.11a1.21,1.21,0,0,0,0,.2,1.58,1.58,0,0,0,0,.19,0.43,0.43,0,0,0,.12.35,0.59,0.59,0,0,0,.37.1h0.15l0.12,0q-0.12.31-.23,0.54a1.62,1.62,0,0,1-.25.38,0.87,0.87,0,0,1-.31.22,1,1,0,0,1-.41.07,1.12,1.12,0,0,1-.8-0.29,1.34,1.34,0,0,1-.37-0.82,3.42,3.42,0,0,1-.31.4,2.48,2.48,0,0,1-.4.36,2,2,0,0,1-.49.25,1.72,1.72,0,0,1-.59.1,1.81,1.81,0,0,1-.6-0.1,1.3,1.3,0,0,1-.51-0.33,1.66,1.66,0,0,1-.36-0.6,2.65,2.65,0,0,1-.13-0.9,5.11,5.11,0,0,1,.08-0.88,5.56,5.56,0,0,1,.25-0.94,5.33,5.33,0,0,1,.42-0.9,3.6,3.6,0,0,1,.6-0.76,2.73,2.73,0,0,1,.78-0.53,2.29,2.29,0,0,1,1-.2,1.24,1.24,0,0,1,.74.18,0.53,0.53,0,0,1,.23.43v0.09l0.13-.64h1.73Zm-1.11-2.94a0.48,0.48,0,0,0,0-.13,0.47,0.47,0,0,0-.08-0.15,0.45,0.45,0,0,0-.15-0.12,0.51,0.51,0,0,0-.24,0,0.8,0.8,0,0,0-.48.16,1.78,1.78,0,0,0-.41.44,3.49,3.49,0,0,0-.33.62,6,6,0,0,0-.4,1.43,4.37,4.37,0,0,0-.05.64,1.72,1.72,0,0,0,.06.53,0.72,0.72,0,0,0,.16.28,0.36,0.36,0,0,0,.2.11l0.19,0a0.69,0.69,0,0,0,.28-0.07,1,1,0,0,0,.29-0.2,1.46,1.46,0,0,0,.25-0.33,1.64,1.64,0,0,0,.17-0.46Z" transform="translate(-1416.92 -29.63)"/></svg>