<svg id="Layer_1" data-name="Layer 1" xmlns="http://www.w3.org/2000/svg" viewBox="0 0 126.22 22.76"><defs><style>.cls-1{fill:#2980b9;}.cls-2{fill:#2c3e50;}</style></defs><title>logo</title><path class="cls-1" d="M1431,49.57a2.48,2.48,0,0,1-2.8,2.82h-4.77v-2.8h4.77V47.73h-8.44a2.79,2.79,0,0,1-2.58-1.65,2.57,2.57,0,0,1-.22-1.07v-8.5a2.79,2.79,0,0,1,.77-2,2.72,2.72,0,0,1,2-.78H1431V49.57Zm-2.8-4.64V36.49h-8.44v8.44h8.44Z" transform="translate(-1416.92 -29.63)"/><path class="cls-1" d="M1447.48,45a2.48,2.48,0,0,1-.23,1.07,3,3,0,0,1-.61.86,2.79,2.79,0,0,1-.89.58,2.75,2.75,0,0,1-1.07.21h-8.42v4.66h-2.8V33.69h11.22a2.72,2.72,0,0,1,2,.78,2.79,2.79,0,0,1,.77,2V45Zm-2.8-.07V36.49h-8.42v8.44h8.42Z" transform="translate(-1416.92 -29.63)"/><path class="cls-1" d="M1463.81,44.93a2.65,2.65,0,0,1-2.8,2.8h-8.42a3,3,0,0,1-1.13-.21,2.69,2.69,0,0,1-.89-0.58,2.53,2.53,0,0,1-.58-0.88,3,3,0,0,1-.2-1.12V33.67h2.8V44.93H1461V33.67h2.8V44.93Z" transform="translate(-1416.92 -29.63)"/><path class="cls-2" d="M1480.25,44.94a2.66,2.66,0,0,1-2.8,2.8h-11.27V29.63h2.8v4.05h8.47a2.71,2.71,0,0,1,1,.21,2.78,2.78,0,0,1,.89.59,3.08,3.08,0,0,1,.62.88,2.46,2.46,0,0,1,.24,1.06v8.5Zm-2.8,0V36.49H1469v8.44h8.47Z" transform="translate(-1416.92 -29.63)"/><path class="cls-2" d="M1485.09,42.09v2.85h10.44v2.8h-10.44a3,3,0,0,1-1.13-.21,2.61,2.61,0,0,1-.89-0.59,2.68,2.68,0,0,1-.58-0.88,3,3,0,0,1-.2-1.11V36.47a2.86,2.86,0,0,1,.72-2,2.69,2.69,0,0,1,2.08-.78h8.33a3,3,0,0,1,1.13.21,2.72,2.72,0,0,1,.89.58,2.54,2.54,0,0,1,.58.88,3,3,0,0,1,.2,1.12v2.82a2.63,2.63,0,0,1-2.8,2.8h-8.33Zm8.33-2.8V36.47h-8.33v2.82h8.33Z" transform="translate(-1416.92 -29.63)"/><path class="cls-2" d="M1511.59,47.73h-2.8V36.49h-7.71V47.73h-2.8v-14h10.51a2.48,2.48,0,0,1,2.8,2.82V47.73Z" transform="translate(-1416.92 -29.63)"/><path class="cls-2" d="M1527.33,47.73h-10.77a2.47,2.47,0,0,1-2.8-2.8V36.51a3,3,0,0,1,.71-2,2.62,2.62,0,0,1,2.09-.82h10.77v2.8h-10.77v8.44h10.77v2.8Z" transform="translate(-1416.92 -29.63)"/><path class="cls-2" d="M1543.15,47.73h-2.8V36.49h-8.42V47.73h-2.8V29.63h2.8v4.05h8.42a2.48,2.48,0,0,1,2.8,2.82V47.73Z" transform="translate(-1416.92 -29.63)"/></svg>